<?xml version="1.0" encoding="UTF-8" standalone="no"?>
<!DOCTYPE svg PUBLIC "-//W3C//DTD SVG 1.1//EN" "http://www.w3.org/Graphics/SVG/1.1/DTD/svg11.dtd">
<svg width="100%" height="100%" viewBox="0 0 2481 1824" version="1.1" xmlns="http://www.w3.org/2000/svg" xmlns:xlink="http://www.w3.org/1999/xlink" xml:space="preserve" xmlns:serif="http://www.serif.com/" style="fill-rule:evenodd;clip-rule:evenodd;stroke-linejoin:round;stroke-miterlimit:1.5;">
    <g transform="matrix(1,0,0,1,-2837.82,-6391.71)">
        <g id="Artboard1" transform="matrix(1,0,0,0.519937,2837.82,6391.71)">
            <rect x="0" y="0" width="2480.32" height="3507.87" style="fill:none;"/>
            <g>
                <g transform="matrix(1.09573,0,0,1.10203,-158.398,-269.204)">
                    <g transform="matrix(1,0,0,1.92331,-2851.56,52.8249)">
                        <path d="M3623.15,1583.48C3630.12,1602.19 3644.87,1617 3663.63,1624.1C3682.39,1631.19 3703.31,1629.88 3721.03,1620.51C3952.2,1498.16 4689.88,1107.73 4961.9,963.758C4982.63,952.784 4995.8,931.545 4996.35,908.196C4996.9,884.847 4984.75,863.019 4964.55,851.092C4750.73,724.814 4266.15,438.626 4266.15,438.626L3372.4,909.769C3372.4,909.769 3552.8,1394.46 3623.15,1583.48Z" style="fill-opacity:0.17;"/>
                    </g>
                    <g transform="matrix(0.852216,0,0,1.73022,-2314.42,215.21)">
                        <path d="M3760.47,579C3760.47,579 3291.64,769.367 3116.32,840.558C3099.42,847.422 3086.27,860.553 3079.98,876.85C3073.7,893.146 3074.83,911.164 3083.11,926.649C3165.13,1079.96 3383.71,1488.54 3481.51,1671.36C3494.16,1695.01 3516.53,1712.75 3543.43,1720.46C3570.32,1728.18 3599.39,1725.19 3623.89,1712.2C3870.81,1581.21 4519.47,1237.12 4519.47,1237.12C4519.47,1237.12 4980.62,774.072 5152.33,601.667C5167.02,586.917 5173.28,566.414 5169.17,546.564C5165.05,526.714 5151.06,509.937 5131.56,501.475C4960.17,427.108 4573.56,259.354 4415.24,190.661C4372.41,172.075 4322.19,177.246 4284.63,204.109C4134.72,311.332 3760.47,579 3760.47,579Z" style="fill:rgb(71,71,71);stroke:rgb(71,71,71);stroke-width:26.96px;"/>
                    </g>
                    <g transform="matrix(0.608517,-0.286917,-0.149179,1.27309,-1338.71,1736.06)">
                        <path d="M3791,466L5011,1487" style="fill:none;stroke:black;stroke-width:2.95px;"/>
                    </g>
                    <g transform="matrix(0.786772,0,0,1.51321,-2048.59,369.698)">
                        <path d="M3055.01,886.976C3055.01,886.976 3051.58,929.946 3049.36,957.789C3048.15,972.918 3051.51,988.061 3059.01,1001.28C3114.88,1099.76 3359.51,1531.01 3466.08,1718.88C3493.69,1767.55 3555.66,1784.89 3604.76,1757.68C3850.02,1621.76 4519,1251 4519,1251C4519,1251 5011.9,762.321 5135.61,639.666C5153.14,622.288 5161.23,597.609 5157.36,573.3C5153.92,551.68 5150.32,529.05 5150.32,529.05L4496,1188.87C4496,1188.87 3792.94,1592.09 3589.52,1708.76C3575.13,1717.01 3558.01,1719.19 3541.99,1714.8C3525.97,1710.41 3512.38,1699.83 3504.27,1685.41C3398.36,1497.19 3055.01,886.976 3055.01,886.976Z" style="fill:rgb(255,201,0);"/>
                    </g>
                    <g transform="matrix(0.786772,0,0,1.51321,-2045.44,343.974)">
                        <path d="M3737,579C3737,579 3278.92,761.976 3093.02,836.236C3073.61,843.987 3058.53,859.705 3051.66,879.341C3044.78,898.977 3046.79,920.61 3057.16,938.665C3155.39,1109.71 3402.21,1539.49 3494.47,1700.14C3514.15,1734.4 3557.91,1746.51 3592.56,1727.29C3806.54,1608.56 4496,1226 4496,1226C4496,1226 4950.3,784.532 5131.07,608.865C5147.84,592.57 5155.63,569.207 5151.97,546.18C5148.31,523.153 5133.65,503.318 5112.64,492.962C4928.26,402.062 4518.14,199.875 4388.26,135.848C4363.6,123.693 4334.15,126.497 4312.26,143.083C4181.54,242.139 3737,579 3737,579Z" style="fill:rgb(255,248,221);"/>
                    </g>
                    <g transform="matrix(1,0,0,1.92331,-2893,0)">
                        <path d="M3815,647L4372,1124" style="fill:none;stroke:rgb(255,201,0);stroke-width:2.95px;"/>
                    </g>
                    <g>
                        <g transform="matrix(1,0,0,1.92331,-2893,0)">
                            <path d="M3795.15,614.217C3797.22,613.725 3801.09,612.855 3803.96,612.423C3821.97,609.708 3890.13,627.472 3974.31,709.43C4029.62,763.279 4090.9,844.686 4148.9,966.105C4191.8,1055.58 4282.71,1139.42 4393.77,1188.18C4485.53,1228.47 4590.89,1244.59 4693.48,1221.72C4703.51,1219.48 4713.51,1216.81 4723.47,1213.79C4724.13,1213.59 4725.11,1213.79 4725.45,1213.19L4726.32,1211.7L4725.82,1210.51C4724.07,1205.91 4723.01,1201.19 4721.54,1196.52C4717.7,1184.23 4712.62,1171.66 4709.3,1159.08L4708.99,1157.66L4707.62,1157.03C4707.08,1156.78 4706.49,1157.39 4705.92,1157.57C4697.36,1160.26 4688.77,1162.61 4680.15,1164.67C4589.75,1186.27 4496.63,1173.25 4414.63,1139.62C4313.67,1098.2 4229.08,1026.14 4188.15,946.801C4123.64,822.17 4056.9,739.441 3997.42,685.189C3899.51,595.896 3819.75,582.737 3799.55,586.471C3781.62,589.787 3770.91,596.657 3769.77,608.442C3769.18,614.557 3771.32,624.072 3780.38,637.941L3801.49,624.808C3799.14,620.945 3796.43,616.889 3795.15,614.217ZM3794.75,613.292C3795.47,612.376 3796.13,611.265 3795.29,611.195C3794.26,611.11 3794.2,611.921 3794.75,613.292Z" style="fill:rgb(71,71,71);"/>
                        </g>
                        <g transform="matrix(1,0,0,1.92331,-2893,0)">
                            <path d="M3795.52,633.316C3798.34,633.816 3803.97,637.162 3809.06,639.511C3842.18,654.807 3909.7,701.556 3994.27,795.981C4043.83,851.318 4099.08,922.94 4156.54,1014.27C4205.21,1091.35 4297.2,1163.88 4408.53,1203.28C4496.31,1234.35 4596.05,1244.79 4695.33,1221.47C4704.79,1219.25 4714.22,1216.62 4723.65,1213.74C4724.27,1213.55 4725.2,1213.73 4725.52,1213.17L4726.28,1211.83C4724.23,1206.48 4722.15,1199.92 4720.1,1192.01L4715.42,1177.44C4712.47,1169.75 4710.32,1163.17 4708.88,1157.59L4707.66,1157.02C4707.15,1156.77 4706.57,1157.37 4706.03,1157.54C4697.78,1160.13 4689.51,1162.41 4681.26,1164.51C4593.04,1186.88 4504.18,1179.97 4424.97,1154.85C4322.83,1122.46 4236.42,1060.91 4189.56,992.756C4110.76,878.634 4036.92,796.152 3974.73,738.289C3897.47,666.392 3838.21,632.276 3810.23,622.253C3785.35,613.342 3777.74,625.332 3784.41,635.432L3797.45,627.317C3798.64,629.297 3797.36,630.791 3796.71,631.748C3796.51,632.036 3796.05,632.698 3795.52,633.316ZM3795.52,633.316C3794.66,634.425 3793.65,635.429 3793.72,634.207C3793.77,633.332 3794.44,633.106 3795.52,633.316Z" style="fill:rgb(71,71,71);fill-opacity:0.13;"/>
                        </g>
                    </g>
                </g>
            </g>
        </g>
    </g>
</svg>
